<svg width="372" height="323" viewBox="0 0 372 323" fill="none" xmlns="http://www.w3.org/2000/svg">
<g clip-path="url(#clip0_7_97)">
<path d="M335.41 168.094C335.458 208.062 319.961 246.492 292.176 275.306C290.5 277.055 288.78 278.761 287.015 280.425C284.325 282.975 281.545 285.427 278.674 287.78C251.82 309.835 218.297 322.228 183.511 322.961C182.352 322.987 181.188 323 180.021 323C152.278 323 117.385 308.228 85.7193 287.78C83.0995 286.088 80.5029 284.358 77.9298 282.587C76.727 281.768 75.5301 280.936 74.3389 280.093C62.1259 271.497 50.5334 262.056 39.6467 251.841C32.5189 245.172 25.8348 238.048 19.6371 230.512C-4.69385 200.594 -10.0604 173.636 24.6274 168.094C28.7344 167.44 32.7203 166.741 36.5851 165.997C42.1835 164.925 47.5413 163.766 52.6585 162.522C59.5515 160.852 66.0275 159.042 72.0865 157.09C74.1247 156.436 76.1161 155.769 78.061 155.089C106.814 145.021 126.058 131.894 139.157 117.649C141.379 115.238 143.427 112.798 145.302 110.329C148.171 106.571 150.776 102.62 153.101 98.5048C156.309 92.7871 159.003 86.7979 161.153 80.6071L161.271 80.267C171.693 50.2965 168.522 22.4973 180.021 13.1931C229.172 -26.583 290.365 30.0619 319.087 96.8611C320.535 100.227 321.896 103.613 323.172 107.02C323.745 108.541 324.298 110.066 324.83 111.593C326.229 115.574 327.499 119.565 328.639 123.566C329.077 125.092 329.493 126.616 329.89 128.14C330.314 129.783 330.721 131.423 331.097 133.062C333.892 145.065 335.41 156.902 335.41 168.094Z" fill="#317685"/>
<path d="M183.511 322.961C182.352 322.987 181.188 323 180.021 323C152.278 323 117.385 308.228 85.7193 287.78C83.0995 286.088 80.5029 284.358 77.9297 282.587L80.1866 268.897L148.508 259.854L182.798 285.993L183.511 322.961Z" fill="#2F2E41"/>
<path d="M186.8 78.5012H177.064C176.763 78.5014 176.473 78.6208 176.26 78.8334C176.047 79.0459 175.927 79.3342 175.927 79.6348V89.3444C175.927 89.493 175.957 89.6402 176.014 89.7774C176.071 89.9146 176.155 90.0392 176.261 90.1441C176.366 90.249 176.492 90.3321 176.629 90.3887C176.767 90.4452 176.915 90.4741 177.064 90.4737H186.8C187.101 90.4738 187.389 90.355 187.603 90.1433C187.816 89.9316 187.936 89.6444 187.937 89.3444V79.6348C187.936 79.3344 187.816 79.0466 187.603 78.8342C187.39 78.6218 187.101 78.5021 186.8 78.5012V78.5012Z" fill="white"/>
<path d="M186.8 95.0473H177.064C176.763 95.0474 176.473 95.1669 176.26 95.3795C176.047 95.592 175.927 95.8803 175.927 96.1809V105.891C175.927 106.039 175.957 106.186 176.014 106.324C176.071 106.461 176.155 106.585 176.261 106.69C176.366 106.795 176.492 106.878 176.629 106.935C176.767 106.991 176.915 107.02 177.064 107.02H186.8C187.101 107.02 187.389 106.901 187.603 106.689C187.816 106.478 187.936 106.19 187.937 105.891V96.1809C187.936 95.8805 187.816 95.5927 187.603 95.3803C187.39 95.1679 187.101 95.0482 186.8 95.0473Z" fill="#E6E6E6"/>
<path d="M186.8 111.593H177.064C176.763 111.594 176.473 111.713 176.26 111.926C176.047 112.138 175.927 112.426 175.927 112.727V122.432C175.927 122.581 175.956 122.729 176.013 122.867C176.07 123.004 176.154 123.129 176.259 123.235C176.365 123.34 176.49 123.423 176.629 123.48C176.767 123.537 176.915 123.566 177.064 123.566H186.8C187.101 123.566 187.391 123.446 187.604 123.234C187.817 123.021 187.937 122.733 187.937 122.432V112.727C187.936 112.427 187.816 112.139 187.603 111.926C187.39 111.714 187.101 111.594 186.8 111.593V111.593Z" fill="#E6E6E6"/>
<path d="M187.92 129.073C187.871 128.812 187.733 128.575 187.528 128.405C187.324 128.235 187.066 128.141 186.8 128.14H177.064C176.763 128.14 176.473 128.259 176.26 128.472C176.047 128.684 175.927 128.973 175.927 129.273V138.978C175.927 139.127 175.956 139.275 176.013 139.413C176.07 139.55 176.154 139.675 176.259 139.781C176.365 139.886 176.49 139.97 176.629 140.026C176.767 140.083 176.915 140.112 177.064 140.112H186.8C187.101 140.112 187.391 139.992 187.604 139.78C187.817 139.567 187.937 139.279 187.937 138.978V129.273C187.938 129.206 187.932 129.139 187.92 129.073V129.073Z" fill="#E6E6E6"/>
<path d="M187.242 144.773C187.102 144.715 186.952 144.685 186.8 144.686H177.064C176.915 144.685 176.767 144.714 176.629 144.771C176.49 144.828 176.365 144.912 176.259 145.017C176.154 145.122 176.07 145.247 176.013 145.385C175.956 145.523 175.927 145.67 175.927 145.819V155.525C175.926 155.674 175.955 155.821 176.012 155.959C176.069 156.097 176.153 156.222 176.259 156.328C176.364 156.433 176.49 156.517 176.628 156.573C176.766 156.63 176.915 156.659 177.064 156.658H186.8C187.102 156.658 187.391 156.539 187.604 156.326C187.817 156.113 187.937 155.825 187.937 155.525V145.819C187.937 145.596 187.87 145.378 187.747 145.192C187.623 145.006 187.448 144.86 187.242 144.773Z" fill="#E6E6E6"/>
<path d="M207.251 78.5012H197.516C197.214 78.5014 196.925 78.6208 196.712 78.8334C196.498 79.0459 196.379 79.3342 196.378 79.6348V89.3444C196.379 89.493 196.408 89.6402 196.465 89.7774C196.523 89.9146 196.606 90.0392 196.712 90.1441C196.818 90.249 196.943 90.3321 197.081 90.3887C197.219 90.4452 197.366 90.4741 197.516 90.4737H207.251C207.552 90.4738 207.841 90.355 208.054 90.1433C208.267 89.9316 208.388 89.6444 208.389 89.3444V79.6348C208.388 79.3344 208.268 79.0466 208.055 78.8342C207.841 78.6218 207.553 78.5021 207.251 78.5012V78.5012Z" fill="#E6E6E6"/>
<path d="M207.251 95.0473H197.516C197.214 95.0474 196.925 95.1669 196.712 95.3795C196.498 95.592 196.379 95.8803 196.378 96.1809V105.891C196.379 106.039 196.408 106.186 196.465 106.324C196.523 106.461 196.606 106.585 196.712 106.69C196.818 106.795 196.943 106.878 197.081 106.935C197.219 106.991 197.366 107.02 197.516 107.02H207.251C207.552 107.02 207.841 106.901 208.054 106.689C208.267 106.478 208.388 106.19 208.389 105.891V96.1809C208.388 95.8805 208.268 95.5927 208.055 95.3803C207.841 95.1679 207.553 95.0482 207.251 95.0473Z" fill="#2E6F94"/>
<path d="M207.251 111.593H197.516C197.214 111.594 196.925 111.713 196.712 111.926C196.498 112.138 196.379 112.426 196.378 112.727V122.432C196.378 122.581 196.407 122.729 196.464 122.867C196.521 123.004 196.605 123.129 196.711 123.235C196.816 123.34 196.942 123.423 197.08 123.48C197.218 123.537 197.366 123.566 197.516 123.566H207.251C207.553 123.566 207.842 123.446 208.055 123.234C208.269 123.021 208.388 122.733 208.389 122.432V112.727C208.388 112.427 208.268 112.139 208.055 111.926C207.841 111.714 207.553 111.594 207.251 111.593V111.593Z" fill="#2E6F94"/>
<path d="M207.251 128.14H197.516C197.277 128.14 197.045 128.215 196.852 128.354C196.659 128.493 196.514 128.69 196.44 128.916C196.399 129.03 196.378 129.151 196.378 129.273V138.978C196.378 139.127 196.407 139.275 196.464 139.413C196.521 139.55 196.605 139.675 196.711 139.781C196.816 139.886 196.942 139.969 197.08 140.026C197.218 140.083 197.366 140.112 197.516 140.112H207.251C207.553 140.112 207.842 139.992 208.055 139.78C208.269 139.567 208.388 139.279 208.389 138.978V129.273C208.388 128.973 208.268 128.685 208.055 128.473C207.841 128.26 207.553 128.14 207.251 128.14V128.14Z" fill="#2E6F94"/>
<path d="M207.251 144.686H197.516C197.366 144.685 197.218 144.714 197.08 144.771C196.942 144.828 196.816 144.912 196.711 145.017C196.605 145.122 196.521 145.247 196.464 145.385C196.407 145.523 196.378 145.67 196.378 145.819V155.525C196.378 155.674 196.407 155.821 196.464 155.959C196.521 156.096 196.605 156.221 196.711 156.327C196.816 156.432 196.942 156.516 197.08 156.573C197.218 156.629 197.366 156.658 197.516 156.658H207.251C207.553 156.658 207.842 156.539 208.055 156.326C208.269 156.113 208.388 155.825 208.389 155.525V145.819C208.388 145.519 208.269 145.23 208.055 145.018C207.842 144.805 207.553 144.686 207.251 144.686V144.686Z" fill="#E6E6E6"/>
<path d="M227.703 78.5012H217.967C217.665 78.5014 217.376 78.6208 217.163 78.8334C216.95 79.0459 216.83 79.3342 216.83 79.6348V89.3444C216.83 89.493 216.86 89.6402 216.917 89.7774C216.974 89.9146 217.058 90.0392 217.163 90.1441C217.269 90.249 217.394 90.3321 217.532 90.3887C217.67 90.4452 217.818 90.4741 217.967 90.4737H227.703C228.004 90.4738 228.292 90.355 228.505 90.1433C228.719 89.9316 228.839 89.6444 228.84 89.3444V79.6348C228.839 79.3344 228.719 79.0466 228.506 78.8342C228.293 78.6218 228.004 78.5021 227.703 78.5012V78.5012Z" fill="#2E6F94"/>
<path d="M227.703 95.0473H217.967C217.665 95.0474 217.376 95.1669 217.163 95.3795C216.95 95.592 216.83 95.8803 216.83 96.1809V105.891C216.83 106.039 216.86 106.186 216.917 106.324C216.974 106.461 217.058 106.585 217.163 106.69C217.269 106.795 217.394 106.878 217.532 106.935C217.67 106.991 217.818 107.02 217.967 107.02H227.703C228.004 107.02 228.292 106.901 228.505 106.689C228.719 106.478 228.839 106.19 228.84 105.891V96.1809C228.839 95.8805 228.719 95.5927 228.506 95.3803C228.293 95.1679 228.004 95.0482 227.703 95.0473Z" fill="#2E6F94"/>
<path d="M227.703 111.593H217.967C217.665 111.594 217.376 111.713 217.163 111.926C216.95 112.138 216.83 112.426 216.83 112.727V122.432C216.83 122.581 216.859 122.729 216.916 122.867C216.973 123.004 217.057 123.129 217.162 123.235C217.268 123.34 217.393 123.423 217.531 123.48C217.67 123.537 217.818 123.566 217.967 123.566H227.703C228.004 123.566 228.294 123.446 228.507 123.234C228.72 123.021 228.84 122.733 228.84 122.432V112.727C228.839 112.427 228.719 112.139 228.506 111.926C228.293 111.714 228.004 111.594 227.703 111.593V111.593Z" fill="#E6E6E6"/>
<path d="M227.703 128.14H217.967C217.665 128.14 217.376 128.259 217.163 128.472C216.95 128.684 216.83 128.973 216.83 129.273V138.978C216.83 139.127 216.859 139.275 216.916 139.413C216.973 139.55 217.057 139.675 217.162 139.781C217.268 139.886 217.393 139.97 217.531 140.026C217.67 140.083 217.818 140.112 217.967 140.112H227.703C228.004 140.112 228.294 139.992 228.507 139.78C228.72 139.567 228.84 139.279 228.84 138.978V129.273C228.839 128.973 228.719 128.685 228.506 128.473C228.293 128.26 228.004 128.14 227.703 128.14V128.14Z" fill="#2E6F94"/>
<path d="M227.703 144.686H217.967C217.818 144.685 217.67 144.714 217.531 144.771C217.393 144.828 217.268 144.912 217.162 145.017C217.057 145.122 216.973 145.247 216.916 145.385C216.859 145.523 216.83 145.67 216.83 145.819V155.525C216.83 155.674 216.859 155.821 216.916 155.959C216.973 156.096 217.057 156.221 217.162 156.327C217.268 156.432 217.393 156.516 217.531 156.573C217.67 156.629 217.818 156.658 217.967 156.658H227.703C228.004 156.658 228.294 156.539 228.507 156.326C228.72 156.113 228.84 155.825 228.84 155.525V145.819C228.84 145.519 228.72 145.23 228.507 145.018C228.294 144.805 228.004 144.686 227.703 144.686V144.686Z" fill="#2E6F94"/>
<path d="M248.154 78.5012H238.418C238.117 78.5014 237.828 78.6208 237.614 78.8334C237.401 79.0459 237.281 79.3342 237.281 79.6348V89.3444C237.281 89.493 237.311 89.6402 237.368 89.7774C237.425 89.9146 237.509 90.0392 237.615 90.1441C237.721 90.249 237.846 90.3321 237.984 90.3887C238.122 90.4452 238.269 90.4741 238.418 90.4737H248.154C248.455 90.4738 248.744 90.355 248.957 90.1433C249.17 89.9316 249.29 89.6444 249.291 89.3444V79.6348C249.291 79.3344 249.17 79.0466 248.957 78.8342C248.744 78.6218 248.456 78.5021 248.154 78.5012V78.5012Z" fill="#2E6F94"/>
<path d="M248.154 95.0473H238.418C238.117 95.0474 237.828 95.1669 237.614 95.3795C237.401 95.592 237.281 95.8803 237.281 96.1809V105.891C237.281 106.039 237.311 106.186 237.368 106.324C237.425 106.461 237.509 106.585 237.615 106.69C237.721 106.795 237.846 106.878 237.984 106.935C238.122 106.991 238.269 107.02 238.418 107.02H248.154C248.455 107.02 248.744 106.901 248.957 106.689C249.17 106.478 249.29 106.19 249.291 105.891V96.1809C249.291 95.8805 249.17 95.5927 248.957 95.3803C248.744 95.1679 248.456 95.0482 248.154 95.0473V95.0473Z" fill="white"/>
<path d="M248.154 111.593H238.418C238.117 111.594 237.828 111.713 237.614 111.926C237.401 112.138 237.281 112.426 237.281 112.727V122.432C237.281 122.581 237.31 122.729 237.367 122.867C237.424 123.004 237.508 123.129 237.614 123.235C237.719 123.34 237.845 123.423 237.983 123.48C238.121 123.537 238.269 123.566 238.418 123.566H248.154C248.456 123.566 248.745 123.446 248.958 123.234C249.171 123.021 249.291 122.733 249.291 122.432V112.727C249.291 112.427 249.17 112.139 248.957 111.926C248.744 111.714 248.456 111.594 248.154 111.593V111.593Z" fill="white"/>
<path d="M248.154 128.14H238.418C238.117 128.14 237.828 128.259 237.614 128.472C237.401 128.684 237.281 128.973 237.281 129.273V138.978C237.281 139.127 237.31 139.275 237.367 139.413C237.424 139.55 237.508 139.675 237.614 139.781C237.719 139.886 237.845 139.97 237.983 140.026C238.121 140.083 238.269 140.112 238.418 140.112H248.154C248.456 140.112 248.745 139.992 248.958 139.78C249.171 139.567 249.291 139.279 249.291 138.978V129.273C249.291 128.973 249.17 128.685 248.957 128.473C248.744 128.26 248.456 128.14 248.154 128.14V128.14Z" fill="#E6E6E6"/>
<path d="M248.154 144.686H238.418C238.269 144.685 238.121 144.714 237.983 144.771C237.845 144.828 237.719 144.912 237.614 145.017C237.508 145.122 237.424 145.247 237.367 145.385C237.31 145.523 237.281 145.67 237.281 145.819V155.525C237.281 155.674 237.31 155.821 237.367 155.959C237.424 156.096 237.508 156.221 237.614 156.327C237.719 156.432 237.845 156.516 237.983 156.573C238.121 156.629 238.269 156.658 238.418 156.658H248.154C248.456 156.658 248.745 156.539 248.958 156.326C249.171 156.113 249.291 155.825 249.291 155.525V145.819C249.291 145.519 249.171 145.23 248.958 145.018C248.745 144.805 248.456 144.686 248.154 144.686V144.686Z" fill="#2E6F94"/>
<path d="M268.606 78.5012H258.865C258.565 78.5023 258.276 78.6222 258.064 78.8346C257.852 79.0471 257.733 79.3348 257.733 79.6348V89.3444C257.733 89.6439 257.852 89.9311 258.065 90.1429C258.277 90.3546 258.565 90.4736 258.865 90.4737H268.606C268.907 90.4738 269.195 90.355 269.408 90.1433C269.622 89.9316 269.742 89.6444 269.743 89.3444V79.6348C269.742 79.3344 269.622 79.0466 269.409 78.8342C269.196 78.6218 268.907 78.5021 268.606 78.5012Z" fill="white"/>
<path d="M268.606 95.0473H258.865C258.565 95.0483 258.276 95.1683 258.064 95.3807C257.852 95.5932 257.733 95.881 257.733 96.1809V105.891C257.733 106.19 257.852 106.477 258.065 106.689C258.277 106.901 258.565 107.02 258.865 107.02H268.606C268.907 107.02 269.195 106.901 269.408 106.689C269.622 106.478 269.742 106.19 269.743 105.891V96.1809C269.742 95.8805 269.622 95.5927 269.409 95.3803C269.196 95.1679 268.907 95.0482 268.606 95.0473V95.0473Z" fill="white"/>
<path d="M268.606 111.593H258.865C258.565 111.595 258.276 111.714 258.064 111.927C257.852 112.139 257.733 112.427 257.733 112.727V122.432C257.732 122.581 257.761 122.728 257.818 122.866C257.875 123.003 257.958 123.128 258.063 123.233C258.169 123.339 258.293 123.422 258.431 123.479C258.569 123.536 258.716 123.566 258.865 123.566H268.606C268.907 123.566 269.196 123.446 269.41 123.234C269.623 123.021 269.743 122.733 269.743 122.432V112.727C269.742 112.427 269.622 112.139 269.409 111.926C269.196 111.714 268.907 111.594 268.606 111.593V111.593Z" fill="white"/>
<path d="M268.606 128.14H258.865C258.565 128.141 258.276 128.261 258.064 128.473C257.852 128.685 257.733 128.973 257.733 129.273V138.978C257.732 139.127 257.761 139.274 257.818 139.412C257.875 139.549 257.958 139.674 258.063 139.779C258.168 139.885 258.293 139.968 258.431 140.025C258.569 140.082 258.716 140.112 258.865 140.112H268.606C268.907 140.112 269.196 139.992 269.41 139.78C269.623 139.567 269.743 139.279 269.743 138.978V129.273C269.742 128.973 269.622 128.685 269.409 128.473C269.196 128.26 268.907 128.14 268.606 128.14V128.14Z" fill="#2E6F94"/>
<path d="M268.606 144.686H258.865C258.716 144.686 258.569 144.715 258.431 144.772C258.293 144.829 258.168 144.913 258.063 145.018C257.958 145.124 257.875 145.249 257.818 145.386C257.761 145.523 257.732 145.671 257.733 145.819V155.525C257.732 155.673 257.761 155.82 257.818 155.958C257.875 156.095 257.958 156.22 258.063 156.326C258.168 156.431 258.293 156.514 258.431 156.572C258.569 156.629 258.716 156.658 258.865 156.658H268.606C268.907 156.658 269.196 156.539 269.41 156.326C269.623 156.113 269.743 155.825 269.743 155.525V145.819C269.743 145.519 269.623 145.23 269.41 145.018C269.196 144.805 268.907 144.686 268.606 144.686V144.686Z" fill="#E6E6E6"/>
<path d="M289.057 78.5012H279.317C279.016 78.5023 278.728 78.6222 278.516 78.8346C278.303 79.0471 278.184 79.3348 278.184 79.6348V89.3444C278.184 89.6439 278.304 89.9311 278.516 90.1429C278.728 90.3546 279.016 90.4736 279.317 90.4737H289.057C289.358 90.4738 289.647 90.355 289.86 90.1433C290.073 89.9316 290.193 89.6443 290.194 89.3444V79.6348C290.193 79.3344 290.073 79.0466 289.86 78.8342C289.647 78.6218 289.358 78.5021 289.057 78.5012V78.5012Z" fill="white"/>
<path d="M289.057 95.0473H279.317C279.016 95.0483 278.728 95.1683 278.515 95.3807C278.303 95.5932 278.184 95.881 278.184 96.1809V105.891C278.184 106.19 278.304 106.477 278.516 106.689C278.728 106.901 279.016 107.02 279.317 107.02H289.057C289.358 107.02 289.647 106.901 289.86 106.689C290.073 106.478 290.193 106.19 290.194 105.891V96.1809C290.193 95.8805 290.073 95.5927 289.86 95.3803C289.647 95.1679 289.358 95.0482 289.057 95.0473V95.0473Z" fill="white"/>
<path d="M289.057 111.593H279.317C279.016 111.595 278.728 111.714 278.515 111.927C278.303 112.139 278.184 112.427 278.184 112.727V122.432C278.184 122.581 278.213 122.728 278.269 122.866C278.326 123.003 278.409 123.128 278.515 123.233C278.62 123.339 278.745 123.422 278.883 123.479C279.02 123.536 279.168 123.566 279.317 123.566H289.057C289.359 123.566 289.648 123.446 289.861 123.234C290.074 123.021 290.194 122.733 290.194 122.432V112.727C290.193 112.427 290.073 112.139 289.86 111.926C289.647 111.714 289.358 111.594 289.057 111.593V111.593Z" fill="#2E6F94"/>
<path d="M289.057 128.14H279.317C279.016 128.141 278.728 128.261 278.516 128.473C278.303 128.685 278.184 128.973 278.184 129.273V138.978C278.184 139.127 278.213 139.274 278.269 139.412C278.326 139.549 278.409 139.674 278.515 139.779C278.62 139.885 278.745 139.968 278.883 140.025C279.02 140.082 279.168 140.112 279.317 140.112H289.057C289.359 140.112 289.648 139.992 289.861 139.78C290.074 139.567 290.194 139.279 290.194 138.978V129.273C290.193 128.973 290.073 128.685 289.86 128.473C289.647 128.26 289.358 128.14 289.057 128.14V128.14Z" fill="#E6E6E6"/>
<path d="M289.057 144.686H279.317C279.168 144.686 279.02 144.715 278.883 144.772C278.745 144.829 278.62 144.913 278.515 145.018C278.409 145.124 278.326 145.249 278.269 145.386C278.213 145.523 278.184 145.671 278.184 145.819V155.525C278.184 155.673 278.213 155.82 278.269 155.958C278.326 156.095 278.409 156.22 278.515 156.326C278.62 156.431 278.745 156.514 278.883 156.572C279.02 156.629 279.168 156.658 279.317 156.658H289.057C289.359 156.658 289.648 156.539 289.861 156.326C290.074 156.113 290.194 155.825 290.194 155.525V145.819C290.194 145.519 290.074 145.23 289.861 145.018C289.648 144.805 289.359 144.686 289.057 144.686Z" fill="white"/>
<path d="M309.509 78.5012H299.768C299.467 78.5023 299.179 78.6222 298.967 78.8346C298.755 79.0471 298.635 79.3348 298.635 79.6348V89.3444C298.636 89.6439 298.755 89.9311 298.967 90.1429C299.18 90.3546 299.468 90.4736 299.768 90.4737H309.509C309.809 90.4738 310.098 90.355 310.311 90.1433C310.524 89.9316 310.645 89.6443 310.646 89.3444V79.6348C310.645 79.3344 310.525 79.0466 310.312 78.8342C310.099 78.6218 309.81 78.5021 309.509 78.5012V78.5012Z" fill="#2E6F94"/>
<path d="M309.509 95.0473H299.768C299.467 95.0483 299.179 95.1683 298.967 95.3807C298.755 95.5932 298.635 95.881 298.635 96.1809V105.891C298.636 106.19 298.755 106.477 298.967 106.689C299.18 106.901 299.468 107.02 299.768 107.02H309.509C309.809 107.02 310.098 106.901 310.311 106.689C310.524 106.478 310.645 106.19 310.646 105.891V96.1809C310.645 95.8805 310.525 95.5927 310.312 95.3803C310.099 95.1679 309.81 95.0482 309.509 95.0473Z" fill="#2E6F94"/>
<path d="M309.509 111.593H299.768C299.467 111.595 299.179 111.714 298.967 111.927C298.755 112.139 298.635 112.427 298.636 112.727V122.432C298.635 122.581 298.664 122.728 298.721 122.866C298.778 123.003 298.861 123.128 298.966 123.233C299.071 123.339 299.196 123.422 299.334 123.479C299.472 123.536 299.619 123.566 299.768 123.566H309.509C309.81 123.566 310.099 123.446 310.312 123.234C310.526 123.021 310.646 122.733 310.646 122.432V112.727C310.645 112.427 310.525 112.139 310.312 111.926C310.099 111.714 309.81 111.594 309.509 111.593V111.593Z" fill="#E6E6E6"/>
<path d="M309.509 128.14H299.768C299.467 128.141 299.179 128.261 298.967 128.473C298.755 128.685 298.635 128.973 298.636 129.273V138.978C298.635 139.127 298.664 139.274 298.721 139.412C298.778 139.549 298.861 139.674 298.966 139.779C299.071 139.885 299.196 139.968 299.334 140.025C299.472 140.082 299.619 140.112 299.768 140.112H309.509C309.81 140.112 310.099 139.992 310.312 139.78C310.526 139.567 310.646 139.279 310.646 138.978V129.273C310.645 128.973 310.525 128.685 310.312 128.473C310.099 128.26 309.81 128.14 309.509 128.14V128.14Z" fill="white"/>
<path d="M309.509 144.686H299.768C299.619 144.686 299.472 144.715 299.334 144.772C299.196 144.829 299.071 144.913 298.966 145.018C298.861 145.124 298.778 145.249 298.721 145.386C298.664 145.523 298.635 145.671 298.636 145.819V155.525C298.635 155.673 298.664 155.82 298.721 155.958C298.778 156.095 298.861 156.22 298.966 156.326C299.071 156.431 299.196 156.514 299.334 156.572C299.472 156.629 299.619 156.658 299.768 156.658H309.509C309.81 156.658 310.099 156.539 310.312 156.326C310.526 156.113 310.646 155.825 310.646 155.525V145.819C310.646 145.519 310.526 145.23 310.312 145.018C310.099 144.805 309.81 144.686 309.509 144.686Z" fill="#2E6F94"/>
<path d="M329.96 78.5012H320.22C319.919 78.5023 319.631 78.6222 319.418 78.8346C319.206 79.0471 319.087 79.3348 319.087 79.6348V89.3444C319.087 89.6439 319.206 89.9311 319.419 90.1429C319.631 90.3546 319.919 90.4736 320.22 90.4737H329.96C330.261 90.4738 330.549 90.355 330.763 90.1433C330.976 89.9316 331.096 89.6443 331.097 89.3444V79.6348C331.096 79.3344 330.976 79.0466 330.763 78.8342C330.55 78.6218 330.261 78.5021 329.96 78.5012Z" fill="#2E6F94"/>
<path d="M329.96 95.0473H320.22C319.919 95.0483 319.631 95.1683 319.418 95.3807C319.206 95.5932 319.087 95.881 319.087 96.1809V105.891C319.087 106.19 319.206 106.477 319.419 106.689C319.631 106.901 319.919 107.02 320.22 107.02H329.96C330.261 107.02 330.549 106.901 330.763 106.689C330.976 106.478 331.096 106.19 331.097 105.891V96.1809C331.096 95.8805 330.976 95.5927 330.763 95.3803C330.55 95.1679 330.261 95.0482 329.96 95.0473V95.0473Z" fill="#2E6F94"/>
<path d="M329.96 111.593H320.22C319.919 111.595 319.631 111.714 319.418 111.927C319.206 112.139 319.087 112.427 319.087 112.727V122.432C319.087 122.581 319.115 122.728 319.172 122.866C319.229 123.003 319.312 123.128 319.418 123.233C319.523 123.339 319.648 123.422 319.785 123.479C319.923 123.536 320.071 123.566 320.22 123.566H329.96C330.261 123.566 330.551 123.446 330.764 123.234C330.977 123.021 331.097 122.733 331.097 122.432V112.727C331.096 112.427 330.976 112.139 330.763 111.926C330.55 111.714 330.261 111.594 329.96 111.593Z" fill="#E6E6E6"/>
<path d="M329.96 128.14H320.22C319.919 128.141 319.631 128.261 319.418 128.473C319.206 128.685 319.087 128.973 319.087 129.273V138.978C319.086 139.127 319.115 139.274 319.172 139.412C319.229 139.549 319.312 139.674 319.418 139.779C319.523 139.885 319.648 139.968 319.785 140.025C319.923 140.082 320.071 140.112 320.22 140.112H329.96C330.261 140.112 330.551 139.992 330.764 139.78C330.977 139.567 331.097 139.279 331.097 138.978V129.273C331.096 128.973 330.976 128.685 330.763 128.473C330.55 128.26 330.261 128.14 329.96 128.14V128.14Z" fill="#2E6F94"/>
<path d="M329.96 144.686H320.22C320.071 144.686 319.923 144.715 319.785 144.772C319.648 144.829 319.523 144.913 319.418 145.018C319.312 145.124 319.229 145.249 319.172 145.386C319.115 145.523 319.086 145.671 319.087 145.819V155.525C319.086 155.673 319.115 155.82 319.172 155.958C319.229 156.095 319.312 156.22 319.418 156.326C319.523 156.431 319.648 156.514 319.785 156.572C319.923 156.629 320.071 156.658 320.22 156.658H329.96C330.261 156.658 330.551 156.539 330.764 156.326C330.977 156.113 331.097 155.825 331.097 155.525V145.819C331.097 145.519 330.977 145.23 330.764 145.018C330.551 144.805 330.261 144.686 329.96 144.686V144.686Z" fill="#2E6F94"/>
<path d="M350.411 78.5012H340.671C340.37 78.5023 340.082 78.6222 339.87 78.8346C339.657 79.0471 339.538 79.3348 339.538 79.6348V89.3444C339.538 89.6439 339.658 89.9311 339.87 90.1429C340.083 90.3546 340.371 90.4736 340.671 90.4737H350.411C350.712 90.4738 351.001 90.355 351.214 90.1433C351.427 89.9316 351.547 89.6443 351.548 89.3444V79.6348C351.548 79.3344 351.428 79.0466 351.214 78.8342C351.001 78.6218 350.713 78.5021 350.411 78.5012V78.5012Z" fill="#E6E6E6"/>
<path d="M350.411 95.0473H340.671C340.37 95.0483 340.082 95.1683 339.87 95.3807C339.657 95.5932 339.538 95.881 339.538 96.1809V105.891C339.538 106.19 339.658 106.477 339.87 106.689C340.083 106.901 340.371 107.02 340.671 107.02H350.411C350.712 107.02 351.001 106.901 351.214 106.689C351.427 106.478 351.547 106.19 351.548 105.891V96.1809C351.548 95.8805 351.428 95.5927 351.214 95.3803C351.001 95.1679 350.713 95.0482 350.411 95.0473V95.0473Z" fill="#2E6F94"/>
<path d="M350.411 111.593H340.671C340.37 111.595 340.082 111.714 339.87 111.927C339.657 112.139 339.538 112.427 339.538 112.727V122.432C339.538 122.581 339.567 122.728 339.624 122.866C339.68 123.003 339.764 123.128 339.869 123.233C339.974 123.339 340.099 123.422 340.237 123.479C340.374 123.536 340.522 123.566 340.671 123.566H350.411C350.713 123.566 351.002 123.446 351.215 123.234C351.428 123.021 351.548 122.733 351.549 122.432V112.727C351.548 112.427 351.428 112.139 351.214 111.926C351.001 111.714 350.713 111.594 350.411 111.593V111.593Z" fill="#2E6F94"/>
<path d="M350.411 128.14H340.671C340.37 128.141 340.082 128.261 339.87 128.473C339.657 128.685 339.538 128.973 339.538 129.273V138.978C339.538 139.127 339.567 139.274 339.624 139.412C339.68 139.549 339.764 139.674 339.869 139.779C339.974 139.885 340.099 139.968 340.237 140.025C340.374 140.082 340.522 140.112 340.671 140.112H350.411C350.713 140.112 351.002 139.992 351.215 139.78C351.429 139.567 351.548 139.279 351.549 138.978V129.273C351.548 128.973 351.428 128.685 351.214 128.473C351.001 128.26 350.713 128.14 350.411 128.14V128.14Z" fill="#2E6F94"/>
<path d="M350.411 144.686H340.671C340.522 144.686 340.374 144.715 340.237 144.772C340.099 144.829 339.974 144.913 339.869 145.018C339.764 145.124 339.68 145.249 339.624 145.386C339.567 145.523 339.538 145.671 339.538 145.819V155.525C339.538 155.673 339.567 155.82 339.624 155.958C339.68 156.095 339.764 156.22 339.869 156.326C339.974 156.431 340.099 156.514 340.237 156.572C340.374 156.629 340.522 156.658 340.671 156.658H350.411C350.713 156.658 351.002 156.539 351.215 156.326C351.429 156.113 351.548 155.825 351.549 155.525V145.819C351.548 145.519 351.429 145.23 351.215 145.018C351.002 144.805 350.713 144.686 350.411 144.686V144.686Z" fill="#E6E6E6"/>
<path d="M370.863 78.5012H361.123C360.822 78.5023 360.534 78.6222 360.321 78.8346C360.109 79.0471 359.99 79.3348 359.99 79.6348V89.3444C359.99 89.6439 360.109 89.9311 360.322 90.1429C360.534 90.3546 360.822 90.4736 361.123 90.4737H370.863C371.164 90.4738 371.452 90.355 371.666 90.1433C371.879 89.9316 371.999 89.6443 372 89.3444V79.6348C371.999 79.3344 371.879 79.0466 371.666 78.8342C371.453 78.6218 371.164 78.5021 370.863 78.5012V78.5012Z" fill="#E6E6E6"/>
<path d="M370.863 95.0473H361.123C360.822 95.0483 360.534 95.1683 360.321 95.3807C360.109 95.5932 359.99 95.881 359.99 96.1809V105.891C359.99 106.19 360.109 106.477 360.322 106.689C360.534 106.901 360.822 107.02 361.123 107.02H370.863C371.164 107.02 371.452 106.901 371.666 106.689C371.879 106.478 371.999 106.19 372 105.891V96.1809C371.999 95.8805 371.879 95.5927 371.666 95.3803C371.453 95.1679 371.164 95.0482 370.863 95.0473V95.0473Z" fill="#E6E6E6"/>
<path d="M370.863 111.593H361.123C360.822 111.595 360.534 111.714 360.321 111.927C360.109 112.139 359.99 112.427 359.99 112.727V122.432C359.989 122.581 360.018 122.728 360.075 122.866C360.132 123.003 360.215 123.128 360.32 123.233C360.426 123.339 360.551 123.422 360.688 123.479C360.826 123.536 360.973 123.566 361.123 123.566H370.863C371.164 123.566 371.454 123.446 371.667 123.234C371.88 123.021 372 122.733 372 122.432V112.727C371.999 112.427 371.879 112.139 371.666 111.926C371.453 111.714 371.164 111.594 370.863 111.593V111.593Z" fill="#2E6F94"/>
<path d="M370.863 128.14H361.123C360.822 128.141 360.534 128.261 360.321 128.473C360.109 128.685 359.99 128.973 359.99 129.273V138.978C359.989 139.127 360.018 139.274 360.075 139.412C360.132 139.549 360.215 139.674 360.32 139.779C360.426 139.885 360.551 139.968 360.688 140.025C360.826 140.082 360.973 140.112 361.123 140.112H370.863C371.164 140.112 371.454 139.992 371.667 139.78C371.88 139.567 372 139.279 372 138.978V129.273C371.999 128.973 371.879 128.685 371.666 128.473C371.453 128.26 371.164 128.14 370.863 128.14V128.14Z" fill="#E6E6E6"/>
<path d="M370.863 144.686H361.123C360.973 144.686 360.826 144.715 360.688 144.772C360.551 144.829 360.426 144.913 360.32 145.018C360.215 145.124 360.132 145.249 360.075 145.386C360.018 145.523 359.989 145.671 359.99 145.819V155.525C359.989 155.673 360.018 155.82 360.075 155.958C360.132 156.095 360.215 156.22 360.32 156.326C360.426 156.431 360.551 156.514 360.688 156.572C360.826 156.629 360.973 156.658 361.123 156.658H370.863C371.164 156.658 371.454 156.539 371.667 156.326C371.88 156.113 372 155.825 372 155.525V145.819C372 145.519 371.88 145.23 371.667 145.018C371.454 144.805 371.164 144.686 370.863 144.686V144.686Z" fill="#E6E6E6"/>
<path d="M146.998 287.781H146.727L146.959 287.75L146.998 287.781Z" fill="#2F2E41"/>
<path d="M123.695 106.843C140.198 106.843 153.577 93.5066 153.577 77.0551C153.577 60.6035 140.198 47.2669 123.695 47.2669C107.191 47.2669 93.8126 60.6035 93.8126 77.0551C93.8126 93.5066 107.191 106.843 123.695 106.843Z" fill="#FFB6B6"/>
<path d="M149.863 55.2149C149.863 55.2149 157.679 40.3208 140.484 38.9668C140.484 38.9668 125.826 25.7115 110.885 36.5435C110.885 36.5435 102.735 36.5435 98.2788 45.7368C98.2788 45.7368 91.8691 43.3136 90.4605 49.7988C90.4605 49.7988 85.7704 63.339 90.4605 75.525C95.1507 87.7111 96.7085 89.0651 96.7085 89.0651C96.7085 89.0651 89.0017 63.5164 107.761 62.1623C126.52 60.8083 147.512 49.1219 149.075 64.0159C150.639 78.91 152.991 82.5798 152.991 82.5798C152.991 82.5798 167.84 61.308 149.863 55.2149Z" fill="#2F2E41"/>
<path d="M200.993 150.467L200.896 150.973L199.816 156.658L192.35 195.985L191.908 198.3L190.981 203.197L189.713 209.876L186.901 224.678L186.096 228.92L185.794 230.512L185.689 231.07L184.854 235.46L184.6 236.786L182.562 251.841L180.782 264.96L186.739 270.898L183.187 274.439L180.856 287.75L180.86 287.78H85.7194C81.8705 285.295 78.077 282.733 74.339 280.093L75.1219 274.251C75.1219 274.251 77.8161 263.818 76.6832 262.571C75.5549 261.324 73.0793 259.096 73.0793 259.096L76.1978 251.841L76.6308 250.834L75.9048 235.822L75.8873 235.46L75.6468 230.512L75.6161 229.875L75.568 228.92L74.6451 209.876L74.6276 209.562L74.3478 203.789L74.0853 198.3L73.9716 195.985L72.8476 172.821L72.0866 157.09L71.4218 143.395L74.0941 142.493L102.676 132.809L114.516 117.466L139.157 117.649L151.22 117.741L171.348 136.349L175.927 138.529L175.962 138.547L179.247 140.112L187.574 144.075L196.378 148.27L200.896 150.419L200.993 150.467Z" fill="#F3FBFF"/>
<path d="M117.7 243.091C115.894 243.788 113.957 244.083 112.025 243.953C110.093 243.823 108.213 243.273 106.517 242.34C104.822 241.408 103.352 240.116 102.211 238.556C101.07 236.996 100.287 235.206 99.9151 233.312L53.3094 226.72L69.5108 208.451L111.284 217.511C114.519 217.1 117.792 217.886 120.484 219.719C123.176 221.553 125.099 224.307 125.89 227.46C126.681 230.613 126.284 233.946 124.774 236.827C123.265 239.708 120.748 241.937 117.7 243.091V243.091Z" fill="#FFB6B6"/>
<path d="M96.9204 209.876C96.057 208.785 94.8349 208.033 93.4695 207.753L74.3477 203.789L72.3839 203.384C71.2427 203.147 70.1646 202.672 69.2202 201.99C68.2758 201.309 67.4864 200.436 66.9036 199.429C66.2992 198.373 65.9335 197.197 65.8321 195.985C65.7409 194.883 65.8733 193.774 66.2213 192.724L72.8475 172.821L77.1468 159.906C77.6679 158.349 77.9754 156.728 78.061 155.089C78.3005 150.551 76.8922 146.079 74.094 142.493C71.6339 139.34 68.2219 137.06 64.3618 135.989C60.5018 134.918 56.3987 135.113 52.6585 136.546C52.5491 136.585 52.4354 136.628 52.3261 136.672C49.6438 137.74 47.2474 139.415 45.3262 141.564C43.405 143.714 42.0116 146.28 41.2562 149.059L36.5851 165.997L26.9499 200.916C25.9853 204.415 25.7905 208.08 26.3786 211.66C26.9668 215.241 28.324 218.653 30.3575 221.662C32.391 224.671 35.0528 227.207 38.1605 229.096C41.2683 230.984 44.7487 232.181 48.3635 232.605L75.9047 235.822L88.6497 237.313C90.1234 237.49 91.6098 237.106 92.8127 236.239C94.0155 235.372 94.8466 234.086 95.1403 232.635C95.1609 232.556 95.1769 232.476 95.1884 232.395L95.4945 230.512L98.0881 214.65L98.1144 214.489C98.2495 213.679 98.2131 212.851 98.0074 212.056C97.8018 211.262 97.4315 210.519 96.9204 209.876Z" fill="#F3FBFF"/>
<path d="M147.386 243.599C149.272 244.036 151.232 244.055 153.126 243.655C155.021 243.255 156.804 242.446 158.351 241.284C159.898 240.123 161.17 238.637 162.079 236.933C162.988 235.228 163.51 233.345 163.61 231.418L208.818 218.34L190.194 202.531L150.119 217.373C146.859 217.421 143.73 218.659 141.324 220.852C138.919 223.046 137.404 226.044 137.067 229.276C136.73 232.509 137.594 235.753 139.496 238.392C141.398 241.032 144.206 242.885 147.386 243.599V243.599Z" fill="#FFB6B6"/>
<path d="M231.263 189.088L209.762 139.759C208.003 135.709 204.862 132.411 200.896 130.45C199.67 129.849 198.383 129.381 197.056 129.055C196.851 129.003 196.645 128.955 196.44 128.916C193.626 128.304 190.708 128.357 187.92 129.073C185.37 129.725 182.988 130.907 180.928 132.539C178.867 134.172 177.175 136.219 175.962 138.547C175.949 138.566 175.937 138.587 175.927 138.608C174.572 141.221 173.851 144.116 173.823 147.058C173.795 150 174.46 152.907 175.765 155.546L176.032 156.078L191.226 186.498C191.745 187.538 192.037 188.676 192.084 189.837C192.131 190.997 191.931 192.155 191.497 193.233C191.063 194.311 190.406 195.286 189.568 196.093C188.73 196.9 187.73 197.522 186.634 197.917L185.567 198.3L166.375 205.211C164.935 205.723 163.75 206.772 163.071 208.138C162.391 209.503 162.269 211.078 162.731 212.531L162.78 212.684L168.159 229.845C168.185 229.923 168.212 230.002 168.242 230.08C168.29 230.228 168.348 230.373 168.417 230.512C168.989 231.79 170 232.823 171.267 233.425C172.535 234.027 173.976 234.158 175.332 233.795L185.689 231.07L187.801 230.512L214.547 223.47C218.066 222.543 221.342 220.869 224.152 218.563C226.962 216.256 229.239 213.371 230.826 210.106C232.414 206.841 233.274 203.272 233.35 199.645C233.425 196.017 232.713 192.416 231.263 189.088L231.263 189.088Z" fill="#F3FBFF"/>
<path d="M19.637 230.512C25.8348 238.047 32.5188 245.172 39.6467 251.841H237.325C239.229 251.844 241.055 252.6 242.401 253.942C243.748 255.285 244.505 257.106 244.507 259.004L244.791 308.939C256.952 303.369 268.34 296.258 278.674 287.78C281.543 285.43 284.323 282.978 287.015 280.425C288.777 278.759 290.497 277.053 292.176 275.306C304.756 262.242 314.943 247.081 322.275 230.512H19.637Z" fill="#3F3D56"/>
<path d="M292.176 275.306C290.5 277.055 288.78 278.761 287.015 280.425H244.935V275.306H292.176Z" fill="white"/>
<path d="M200.599 111.593C200.391 111.211 200.083 110.892 199.709 110.669C199.334 110.446 198.905 110.329 198.469 110.329H55.0815C54.4387 110.331 53.8227 110.586 53.3685 111.04C52.9143 111.493 52.659 112.108 52.6585 112.749V198.3H200.896V112.749C200.899 112.345 200.796 111.947 200.599 111.593V111.593Z" fill="#3F3D56"/>
<path d="M52.5286 195.984V206.541C52.5286 206.979 52.6151 207.412 52.7831 207.817C52.9511 208.221 53.1974 208.588 53.5078 208.898C53.8183 209.207 54.1868 209.453 54.5924 209.62C54.998 209.788 55.4328 209.874 55.8718 209.874H110.585V230.709H109.859C109.802 230.709 109.745 230.72 109.692 230.742C109.64 230.764 109.592 230.795 109.551 230.836C109.511 230.876 109.479 230.924 109.457 230.976C109.435 231.029 109.424 231.085 109.424 231.142V232.591C109.424 232.648 109.435 232.704 109.457 232.757C109.479 232.809 109.511 232.857 109.551 232.897C109.592 232.937 109.64 232.969 109.692 232.991C109.745 233.013 109.801 233.024 109.859 233.024H143.824C143.881 233.024 143.938 233.013 143.99 232.991C144.043 232.969 144.091 232.937 144.131 232.897C144.171 232.857 144.203 232.809 144.225 232.757C144.247 232.704 144.258 232.648 144.258 232.591V231.142C144.258 231.085 144.247 231.029 144.225 230.976C144.203 230.924 144.171 230.876 144.131 230.836C144.091 230.795 144.043 230.764 143.99 230.742C143.938 230.72 143.881 230.709 143.824 230.709H143.097V209.874H197.811C198.25 209.874 198.685 209.788 199.09 209.62C199.496 209.453 199.864 209.207 200.175 208.898C200.485 208.588 200.731 208.221 200.899 207.817C201.067 207.412 201.154 206.979 201.154 206.541V195.984H52.5286Z" fill="#3F3D56"/>
<path d="M125.045 165.684C132.608 165.684 138.738 159.572 138.738 152.034C138.738 144.496 132.608 138.385 125.045 138.385C117.483 138.385 111.353 144.496 111.353 152.034C111.353 159.572 117.483 165.684 125.045 165.684Z" fill="#2E6F94"/>
<path d="M159.932 75.4274H157.745C157.745 58.9467 141.383 48.1471 124.877 48.1383C122.476 48.1313 120.081 48.3636 117.726 48.8316C115.076 49.3591 112.325 49.9913 109.622 50.8154C98.9629 54.0723 89.0783 60.3681 89.0783 75.4274C89.0761 78.3521 89.4494 81.265 90.1893 84.0951L88.0724 84.6444C87.2872 81.6347 86.8904 78.5373 86.8915 75.4274C86.8915 62.269 92.3105 53.2308 101.67 47.8419C106.591 45.0079 112.596 43.181 119.476 42.2916C122.339 41.9119 125.233 41.8243 128.114 42.03C147.095 43.3903 159.932 57.9003 159.932 75.4274Z" fill="#2E6F94"/>
<path d="M163.576 76.6351L162.714 70.287C162.501 68.6838 161.727 67.2073 160.527 66.1188C159.757 65.4092 158.835 64.8835 157.831 64.5814C156.827 64.2792 155.767 64.2086 154.732 64.3749L153.363 64.5623C152.988 64.6115 152.627 64.7343 152.301 64.9237C151.974 65.113 151.689 65.3651 151.46 65.6654C151.23 65.9647 151.062 66.3064 150.965 66.6708C150.868 67.0352 150.845 67.4152 150.896 67.7887L152.886 82.4121C152.968 83.0081 153.236 83.5633 153.652 83.9992C154.068 84.435 154.611 84.7293 155.204 84.8406C155.38 84.8757 155.559 84.8932 155.738 84.8929C155.867 84.8929 155.995 84.8841 156.123 84.8667L157.654 84.6618C158.587 84.5384 159.485 84.226 160.293 83.7439C161.101 83.2618 161.801 82.6201 162.351 81.8584C162.469 81.6927 162.583 81.5226 162.688 81.3482C163.507 79.9216 163.82 78.261 163.576 76.6351Z" fill="#2E6F94"/>
<path d="M152.48 64.8283C152.078 65.0228 151.729 65.3097 151.46 65.6654C151.23 65.9647 151.062 66.3064 150.965 66.6708C150.868 67.0353 150.845 67.4152 150.896 67.7887L152.886 82.4121C152.968 83.0081 153.236 83.5633 153.652 83.9992C154.068 84.435 154.611 84.7294 155.204 84.8406L152.48 64.8283Z" fill="white"/>
<path d="M163.576 76.6351L162.714 70.287C162.501 68.6838 161.727 67.2073 160.527 66.1188L162.508 80.6681C162.538 80.9016 162.598 81.1303 162.688 81.3482C163.507 79.9216 163.82 78.261 163.576 76.6351V76.6351Z" fill="#3F3D56"/>
<path d="M156.766 81.209C157.364 81.1281 157.665 79.7085 157.438 78.0382C157.211 76.368 156.541 75.0796 155.943 75.1605C155.344 75.2414 155.044 76.661 155.271 78.3313C155.498 80.0015 156.167 81.29 156.766 81.209Z" fill="#3F3D56"/>
<path d="M155.454 73.3611C156.052 73.2802 156.353 71.8605 156.126 70.1903C155.898 68.52 155.229 67.2316 154.631 67.3125C154.032 67.3934 153.731 68.8131 153.959 70.4833C154.186 72.1536 154.855 73.442 155.454 73.3611Z" fill="#3F3D56"/>
<path d="M163.764 76.4131C164.362 76.3322 164.663 74.9125 164.436 73.2423C164.208 71.572 163.539 70.2836 162.941 70.3645C162.342 70.4454 162.041 71.8651 162.269 73.5353C162.496 75.2056 163.165 76.494 163.764 76.4131Z" fill="#3F3D56"/>
<path d="M124.877 48.1383C122.476 48.1313 120.081 48.3636 117.726 48.8316C115.076 49.3591 112.325 49.9913 109.622 50.8154C105.401 50.6104 102.296 49.5205 101.67 47.8419C106.591 45.0079 112.596 43.181 119.476 42.2916C122.339 41.9119 125.233 41.8243 128.114 42.03C128.419 42.2082 128.682 42.4488 128.887 42.7358C129.092 43.0229 129.234 43.3499 129.303 43.6955C129.509 45.2128 127.772 46.826 124.877 48.1383Z" fill="#3F3D56"/>
<path d="M96.9554 90.5566L93.5876 76.6003C93.4675 76.0968 93.2009 75.6398 92.8211 75.2869C92.4414 74.9339 91.9655 74.7007 91.4532 74.6165C91.3085 74.594 91.1623 74.5824 91.0159 74.5816C90.8096 74.5823 90.604 74.6072 90.4035 74.6557L89.1002 74.9696C87.4221 75.3742 85.9735 76.4259 85.0723 77.894C84.1712 79.362 83.8911 81.1265 84.2935 82.8002L85.8024 89.0611C86.1469 90.5351 86.9675 91.8555 88.138 92.8194C88.3277 92.972 88.5263 93.1133 88.7328 93.2423C89.4659 93.7004 90.2837 94.0073 91.1378 94.1451C91.9919 94.2829 92.8651 94.2487 93.7057 94.0446L95.0047 93.7307C95.3482 93.6508 95.6713 93.5008 95.9538 93.2903C96.3738 92.985 96.6934 92.5621 96.8717 92.0753C97.05 91.5885 97.0792 91.0599 96.9554 90.5566Z" fill="#2E6F94"/>
<path d="M89.8952 87.9598C90.4823 87.819 90.6376 86.3763 90.242 84.7375C89.8464 83.0987 89.0497 81.8844 88.4626 82.0253C87.8755 82.1661 87.7202 83.6088 88.1158 85.2476C88.5114 86.8863 89.3081 88.1007 89.8952 87.9598Z" fill="#3F3D56"/>
<path d="M85.5215 89.2678C86.1086 89.127 86.2639 87.6843 85.8683 86.0455C85.4727 84.4067 84.676 83.1924 84.0889 83.3332C83.5018 83.4741 83.3465 84.9168 83.7421 86.5555C84.1377 88.1943 84.9344 89.4086 85.5215 89.2678Z" fill="#3F3D56"/>
<path d="M97.1697 90.5042L93.8019 76.5479C93.6707 76.0032 93.3812 75.5091 92.9696 75.1275C92.5581 74.7459 92.0428 74.4939 91.4882 74.4028L96.085 93.4647C96.539 93.1332 96.8843 92.6752 97.0773 92.1483C97.2703 91.6214 97.3025 91.0493 97.1697 90.5042V90.5042Z" fill="white"/>
<path d="M85.0545 80.0359C84.9616 79.6478 84.7872 79.2837 84.5428 78.9677C84.0694 80.1899 83.9824 81.5272 84.2935 82.8001L85.8024 89.0611C86.147 90.535 86.9675 91.8555 88.138 92.8194L85.0545 80.0359Z" fill="#3F3D56"/>
</g>
<defs>
<clipPath id="clip0_7_97">
<rect width="372" height="323" fill="white"/>
</clipPath>
</defs>
</svg>
